<?xml version="1.0" standalone="no"?>
<!DOCTYPE svg PUBLIC "-//W3C//DTD SVG 20010904//EN"
 "http://www.w3.org/TR/2001/REC-SVG-20010904/DTD/svg10.dtd">
<svg version="1.0" xmlns="http://www.w3.org/2000/svg"
 width="512.000000pt" height="512.000000pt" viewBox="0 0 512.000000 512.000000"
 preserveAspectRatio="xMidYMid meet">
<metadata>
Created by potrace 1.11, written by Peter Selinger 2001-2013
</metadata>
<g transform="translate(0.000000,512.000000) scale(0.100000,-0.100000)"
fill="#000000" stroke="none">
<path d="M2360 4414 c-102 -13 -260 -48 -338 -75 -342 -121 -558 -334 -644
-637 -30 -103 -32 -318 -5 -437 92 -398 443 -659 1065 -790 289 -61 353 -76
462 -112 344 -114 526 -275 575 -508 18 -88 19 -142 0 -229 -49 -230 -227
-413 -489 -502 -209 -72 -482 -78 -696 -18 -273 78 -488 268 -610 538 -32 72
-95 261 -105 319 -4 20 -10 37 -14 36 -3 0 -89 -44 -191 -97 -212 -112 -198
-89 -154 -240 31 -108 115 -284 184 -388 74 -110 244 -277 358 -351 154 -101
337 -171 547 -211 128 -23 484 -23 612 1 222 42 435 130 588 244 282 210 432
527 412 868 -17 270 -134 491 -344 649 -190 143 -427 240 -763 311 -343 73
-491 116 -646 190 -209 98 -333 221 -378 374 -19 66 -21 198 -2 266 71 268
354 428 756 428 163 0 268 -19 406 -72 225 -87 428 -298 532 -553 15 -37 31
-68 35 -68 4 0 82 44 172 97 l163 97 -24 65 c-106 281 -327 525 -598 660 -209
104 -371 141 -641 146 -104 2 -206 1 -225 -1z"/>
</g>
</svg>
